<?xml version="1.0" encoding="utf-8"?>
<!-- Generator: Adobe Illustrator 26.5.0, SVG Export Plug-In . SVG Version: 6.00 Build 0)  -->
<svg version="1.1" id="Calque_1" xmlns="http://www.w3.org/2000/svg" xmlns:xlink="http://www.w3.org/1999/xlink" x="0px" y="0px"
	 viewBox="0 0 1920 1080" style="enable-background:new 0 0 1920 1080;" xml:space="preserve">
<style type="text/css">
	.st0{fill-rule:evenodd;clip-rule:evenodd;}
	.st1{fill-rule:evenodd;clip-rule:evenodd;fill:#FEFEFE;}
	.st2{fill-rule:evenodd;clip-rule:evenodd;fill:#FFCF1F;}
	.st3{fill-rule:evenodd;clip-rule:evenodd;fill:#FF0011;}
</style>
<g>
	<path class="st0" d="M556.66,394.93v0.78c-7.23,0-13.42,3.23-18.35,7.84l-2.95,3.53c-3.22,4.39-4.9,9.53-5.15,14.71v2.62
		c0.31,6.75,3.04,13.37,7.97,18.3c8.52,8.52,22.76,10.67,33.41,4.24c1.1-0.67,2.26-1.9,3.48-2.23c1.76,1.18,4.21,3.94,5.77,5.38
		c0.59,0.55,0.84,0.61,1.43,1.16l2.85,2.85c4.47,3.94,8.64,8.38,13.21,12.2l17.26,16.19c0.98,0.95,1.83,1.99,2.86,2.85
		c2.41,2.02,2.78,1.81,2.78,4.74l-44.86-0.26c-11.49,0-15.84,12.16-9.49,20.64c1.35,1.81,4.64,3.99,7.68,3.99h47.19
		c0,5.98,3.06,17.61,5.02,23.5l6.04,14.45c3.55,7.11,7.83,13.77,12.57,20.1c4.67,6.24,9.96,11.72,15.46,17.21
		c2.67,2.67,5.78,5.64,8.88,7.71l-2.74,2.71c-0.06,0.05-0.22,0.19-0.28,0.24c-0.3,0.26-0.27,0.23-0.55,0.49l-5.31,5.06
		c-0.74,0.73-1.22,0.94-1.96,1.68l-42,39.16c-0.78,0.69-1.17,0.9-1.94,1.69c-0.62,0.62-1.17,1.25-1.83,1.8l-2,1.63
		c-0.66-0.44-0.9-0.83-1.55-1.3c-0.58-0.42-1.22-0.83-1.87-1.24c-13.47-8.67-31.77-3.78-39.54,11.7c-0.73,1.46-1.3,3.23-1.75,4.99
		c-0.54,2.13-0.6,3.99-0.87,6.15c-0.38,3.09,1.04,8.41,2.19,11.15c3.95,9.37,13.56,16.78,24.19,16.78
		c0,16.49,12.15,28.52,28.52,28.52c10.37,0,19.65-7.21,23.17-14.17c1.16-2.3,1.94-3.89,2.65-6.69c1.67-6.58,0.64-13.32-2.31-19.25
		c-0.3-0.6-0.45-0.97-0.8-1.53c-0.42-0.68-0.72-0.89-0.93-1.66c1.11-1.66,3.6-3.45,5.12-4.99l5.25-4.86
		c1.73-1.32,9.41-9.27,10.63-9.59c0,5.14,3.35,14.84,5.33,19.56c4.32,10.28,10.91,19.41,19.82,26.08c2.34,1.75,4.9,3.57,7.52,4.93
		c1.74,0.91,3.66,1.94,5.6,2.7c20.89,8.25,43.11,8.53,64.74,2.53c2.09-0.58,4.34-1.33,6.16-2.13c5.74-2.52,10.98-5.33,15.93-9.22
		c12.21-9.57,20.33-24.72,22.82-39.93c0.22-1.35,0.39-2.57,0.67-3.74l17.57,16.4c0.8,0.8,1.5,1.96,2.66,2.27
		c-3.12,5.9-5.19,8.69-5.19,16.34c0,6.55,2.09,12.2,5.93,16.89c4.6,5.63,11.9,10.33,19.49,10.33c5.54,0,9.33-0.24,14.18-2.68
		c3.28-1.65,5.08-2.97,7.54-5.42c5.1-5.08,7.84-11.35,7.84-20.16c16.67,0,32.92-17.9,24.16-38.94c-0.5-1.2-1.7-3.26-2.44-4.3
		c-1.15-1.6-1.88-2.4-3.24-3.76c-8.86-8.87-22.7-10.46-33.79-3.84c-0.75,0.45-1.15,0.69-1.88,1.24c-0.66,0.5-1.16,0.99-1.74,1.37
		c-0.85-1.28-3.73-3.66-5.12-5c-0.74-0.71-1.2-0.92-1.95-1.68l-36.03-33.98c-0.71-0.7-1.12-0.87-1.83-1.55
		c-0.67-0.65-1.15-1.16-1.81-1.82c-0.74-0.75-0.99-0.94-1.79-1.58c-0.67-0.53-1.21-1.16-1.84-1.79c-1.06-1.06-6.54-5.83-7.2-6.81
		c3.28-2.19,6.44-4.86,9.4-7.46c2.93-2.58,5.99-5.38,8.56-8.3l1.95-2.2c0.83-0.81,1.15-1.38,1.94-2.21
		c0.51-0.53,0.52-0.62,0.94-1.14c3.55-4.4,7.07-8.74,9.97-13.62c1.07-1.8,2.1-3.37,3.11-5.19c3.14-5.66,5.7-11.18,8.07-17.35
		c2.5-6.51,6.63-20.6,6.63-27.34h48.23c5.93,0,10.37-5.42,10.37-11.15c0-3.93-0.64-6.79-3.17-9.28c-1.82-1.79-4.47-2.91-7.98-2.91
		H855.9c0-3.33-0.29-3.16,2.4-5.64c0.59-0.55,0.84-0.61,1.43-1.16l9.72-9.21c0.59-0.55,0.84-0.61,1.43-1.16l7.13-6.62
		c0.95-0.84,1.64-1.77,2.61-2.58l8.55-7.79c1.83-1.84,3.59-3.37,5.44-5.2l2.86-2.59c0.75-0.75,2.01-2.12,3.05-2.4
		c1.85,1.24,3.62,2.73,5.74,3.59c2.59,1.05,4.17,1.64,7.4,2.19c10.79,1.82,20.27-3.03,26.38-11.12c2.88-3.82,4.69-9.05,5.07-14.33
		v-4.11c-0.13-1.68-0.41-3.34-0.87-4.92c-0.49-1.71-1.03-3.37-1.72-4.76c-1.23-2.5-2.88-4.66-4.73-6.68
		c-1.36-1.48-2.71-2.75-4.4-3.9c-1.25-0.86-2.71-1.76-4.1-2.38c-3.03-1.35-6.58-2.26-10.63-2.6c0.91-2.2-0.91-8.84-1.85-11.12
		c-2.52-6.12-6.86-11.2-12.8-14.16c-16.43-8.19-35.6,0.74-39.69,18.9c-1.41,6.28-0.16,13.59,3.01,19.07
		c0.57,0.99,1.24,1.79,1.81,2.86l-13.16,12.51c-4.61,4.05-9.28,8.21-13.61,12.58c-0.73,0.74-3.28,3.22-4.08,3.44
		c-0.35-1.3-3.1-4.57-3.93-5.67c-3.25-4.34-9.4-11.61-13.63-15.15c-1.71-1.43-3.2-3.2-5-4.59c-0.83-0.64-1.7-1.4-2.54-2.13
		c-8.89-7.82-22.58-15.02-33.62-19.28c-3.58-1.38-7.22-2.43-10.83-3.43c-6.82-1.87-13.44-2.88-20.67-3.44
		c-8.67-0.68-19.06-0.49-27.33,0.72c-5.84,0.86-10.97,1.81-16.2,3.25c-16.37,4.48-30.32,11.84-42.92,22.43l-5.18,4.67
		c-0.62,0.52-0.81,0.57-1.42,1.17c-3.3,3.26-6.28,6.68-9.2,10.25c-2.5,3.06-5.11,6.32-7.12,9.74c-0.39,0.66-0.57,1.07-1.12,1.47
		c-2.06-1.38-15.93-15.14-19.63-18.23c-2.64-2.21-4.96-5.14-7.75-7.29c-1.54-1.19-2.45-2.74-4-3.78c4.19-6.26,5.45-10.35,5.45-18.41
		c0-3.49-1.43-7.76-2.59-10.12c-4.09-8.33-13.23-15.55-23.08-15.55c-5.74,0-8.81,0.48-13.67,2.66
		C562.88,374.34,556.66,384.57,556.66,394.93L556.66,394.93z"/>
	<path class="st1" d="M848.77,514.74l-220.21,0c1.75,18.13,13.42,43.72,25.09,57.56l11,11.55c7.68,7.25,20.12,14.29,29.97,18.01
		c26.03,9.82,61.14,9.64,87.22-0.41c8.9-3.43,17.26-8.08,24.47-13.65l10.23-8.96c0.6-0.61,0.92-1,1.49-1.63
		c0.57-0.64,1.15-1.02,1.71-1.65c3.5-3.9,8.3-10.14,10.99-14.42c1.63-2.6,3.25-5.29,4.8-8.17c2.99-5.54,5.56-11.45,7.89-17.79
		C845.36,529.92,848.17,520.75,848.77,514.74L848.77,514.74z"/>
	<path class="st2" d="M638.86,455.19l198.74,0.01c-0.86-3.17-5.46-10.4-7.18-13.01l-9.8-12.76c-0.49-0.61-0.75-0.73-1.29-1.29
		c-0.91-0.95-1.5-1.78-2.46-2.73c-3.36-3.36-6.88-6.63-10.67-9.56c-18.33-14.15-40.47-22.88-68.02-22.86
		c-26.16,0.01-51.26,8.62-68.02,22.61l-4.08,3.44c-0.54,0.46-0.92,0.64-1.45,1.16c-8.48,8.41-11.31,11-18.59,21.86
		C644.33,444.6,639.71,451.97,638.86,455.19L638.86,455.19z"/>
	<path class="st3" d="M628.23,489.14l220.15-0.26c0.8-5.11-2.33-16.46-4.33-21.67c-0.8-2.08-1.95-4.34-2.57-6.22l-205.73-0.01
		c-1.32,0.32-4.75,11.56-5.06,12.65C629.21,478.67,628.38,483.58,628.23,489.14L628.23,489.14z"/>
	<path class="st1" d="M806.41,653.22l-7.17,4c-40.35,20.64-84.19,20.87-123.48-2.27c-1.27-0.75-2.34-1.39-3.52-2.18
		c-1.12-0.75-2.45-1.75-3.7-2.26c0.84,11.97,0.44,17.55,4.62,29.6c5.78,16.67,16.74,28.14,33.66,34.79
		c16.64,6.54,42.66,6.65,59.56,1.01c4.29-1.43,8.19-3.21,11.83-5.3c2.39-1.37,7.88-5.23,9.73-7.38c0.71-0.83,1.26-1.33,2.1-2.05
		c1.32-1.14,4.66-5.67,5.7-7.27c2.22-3.45,4.1-7.03,5.77-11.34C804.69,674.36,806.73,663,806.41,653.22L806.41,653.22z"/>
	<path class="st1" d="M812.31,658.48c3.37,2.62,6.1,5.76,8.82,8.22l8.85,8.27c0.66,0.57,1.18,0.98,1.82,1.56
		c0.7,0.64,1.06,1.22,1.77,1.85c1.31,1.14,6.51,5.71,7.14,6.72c-0.3,0.49-0.05,0.11-0.37,0.49c-2.48,2.9-3.94,4.19-5.58,8.2
		c-4.57,11.17,1.66,24.25,13.11,27.86c11.63,3.66,24.04-3.25,26.97-14.76c1.36-5.34,0.32-8.03-0.34-13.13
		c5.28,0.42,8.21,1.16,13.33-0.59c11.46-3.92,17.46-16.8,12.59-28.22c-6.42-15.05-25.24-15.83-33.38-7.6
		c-1.03,1.04-2.94,2.76-3.58,3.94c-1.42-0.61-2.73-2.26-3.9-3.44c-0.61-0.62-1.26-1.12-1.93-1.7c-0.86-0.74-1.1-1.08-1.94-1.94
		l-13.4-12.53c-0.76-0.69-1.32-1.14-2.09-1.81L821,621.72c-3.12-2.69-6.54-6.31-9.54-8.87l-5.83-5.58
		c-1.03-1.14-2.76-2.46-3.91-3.51l4.32,11.91C810.41,629.6,812.28,643.64,812.31,658.48L812.31,658.48z"/>
	<path class="st1" d="M610.94,660.86c-2.57-2.44-3.61-4.29-7.26-6.45c-10.19-6.04-23.09-2.04-28.73,7.49
		c-8.74,14.77,2.59,31.91,18.01,31.91l6.55-0.55c-1.35,8.02-1.93,12.37,2.08,18.99c2.6,4.3,7.27,8.24,13.72,9.61
		c13.69,2.91,25.4-8.12,25.37-20.69c-0.01-3.44-0.88-6.73-2.23-9.44c-1.96-3.92-4.59-5.99-5.11-6.9c0.43-0.92,0.82-1.04,1.83-1.88
		c3.27-2.76,7.39-7.14,11.46-10.58c0.79-0.67,1.18-1.26,1.94-1.94l7.69-7.09c1.33-1.13,2.43-2.37,3.76-3.5
		c2.37-2.01,2.4-1.01,2.38-5.08c-0.04-12.98,1.58-26.88,5.24-39.16c0.56-1.89,1.18-3.7,1.81-5.45c0.64-1.77,1.61-3.65,2.14-5.38
		c-1.41,1.03-2.45,2.04-3.81,3.45l-17.02,15.66c-0.78,0.77-1.01,1.12-1.82,1.81c-1.33,1.13-2.43,2.35-3.77,3.49l-20.95,19.5
		c-0.72,0.63-1.28,1.05-1.97,1.67l-9.34,8.8C612.22,659.76,611.57,660.26,610.94,660.86L610.94,660.86z"/>
	<path class="st1" d="M564.08,402.6c-5.31,0.06-7.25-1.31-12.97,0.54c-11.05,3.57-17.8,16.18-13.12,27.84
		c4.44,11.07,17.47,16.68,28.69,11.31c4.22-2.02,5.69-4.02,8.23-6.52l5.84,5.35c1.1,0.93,1.82,1.89,2.89,2.81l10.38,9.59
		c0.56,0.51,0.83,0.96,1.37,1.48l20.63,19.31c0.91,1,2.03,1.74,3.02,2.69c1.19,1.14,1.64,1.9,2.96,2.77c0.54-0.99,1.7-7.19,2.2-8.97
		c2.28-8.13,4.61-13.09,8.14-20.39c0.61-1.27,1.62-2.52,1.92-3.96c-2.09-1.49-2.99-2.7-4.58-4.19l-13.83-12.88
		c-1.6-1.38-2.96-2.86-4.56-4.26l-14.01-12.95c0.72-2.39,10.16-7.81,7.69-21.19c-1.43-7.72-7.16-13.8-13.78-16.04
		c-6.91-2.34-14.18-1.08-19.91,3.26c-0.35,0.27-0.7,0.49-1.02,0.8c-0.39,0.36-0.62,0.71-1,1.07c-2.33,2.19-4.33,5.28-5.44,9.35
		C562.1,395.69,563.86,398.41,564.08,402.6L564.08,402.6z"/>
	<path class="st1" d="M878.16,412.9l-11.22,10.44c-0.8,0.74-1.58,1.27-2.38,2.03l-4.49,4.31c-0.73,0.8-1.41,1.24-2.22,1.94
		l-11.43,10.61c-1.42,1.46-3.9,3.42-4.4,4.3c3.11,6.25,4.18,7,7.47,14.96c1.17,2.83,2.1,5.48,3.01,8.4
		c0.44,1.42,2.05,8.48,2.36,8.99c1.9-1.65,3.78-3.4,5.7-5.13c0.53-0.48,0.74-0.81,1.26-1.33l15.77-14.58
		c3.41-2.87,8.06-7.73,11.32-10.46c0.5-0.42,0.95-0.75,1.38-1.21c2.3-2.4,5.23-4.74,7.13-6.61l2.92-2.76
		c1.79,2.08,5.27,5.15,7.89,6.41c16.55,7.94,33.65-6.4,30.17-23.16c-1.53-7.37-6.9-13.35-13.87-15.69c-5.11-1.71-7.89-1-13.18-0.6
		c0.58-5.1,1.78-7.56,0.4-13.08c-2.94-11.81-15.56-18.77-27.23-14.84c-13.54,4.57-18.93,21.12-9.89,33.04
		C875.74,410.34,877.44,411.48,878.16,412.9L878.16,412.9z"/>
	<path class="st2" d="M575.87,495.45c-5.67,1.47-6.24,11.96-0.15,13.18c2.26,0.45,225.85,0.1,240.77,0.1c1.59,0,85.68,0.3,87.52-0.1
		c5.74-1.25,5.7-11.78-0.02-13.16c-1.84-0.44-272.09-0.11-306.35-0.11C594.02,495.36,578.05,494.89,575.87,495.45L575.87,495.45z"/>
	<path class="st0" d="M691.56,520.88c-17.07,1.37-29.36,16.51-26.53,33.56c2.39,14.39,15.97,29.15,33.2,26.68
		c14.27-2.04,28.78-16.4,26.48-33.44C722.79,533.52,708.05,519.56,691.56,520.88L691.56,520.88z"/>
	<path class="st0" d="M780.46,521.37c-9.62,0.6-18.72,5.97-23.46,13.74c-3.47,5.68-4.73,11.1-4.18,18.21
		c1.39,18.08,15.46,28.1,32.3,27.61c16.13-0.47,28.05-15.21,27.42-32.22C811.95,532.75,797.49,520.3,780.46,521.37L780.46,521.37z"
		/>
	<path class="st1" d="M701.56,660.19c5.39,1.28,8.06,2.71,15.79,4.23c3.94,0.78,14.21,2.4,18.11,1.9l0.02-21.84
		c-2.69-0.44-10.4-0.45-16.53-1.38c-2.58-0.4-4.97-0.82-7.47-1.34c-2.28-0.47-5.16-1.43-7.22-1.7
		C703.68,642.81,701.58,657.7,701.56,660.19L701.56,660.19z"/>
	<path class="st1" d="M741.06,644.39l-0.13,22.03c8.24-0.19,15.62-1.23,23.48-3.03c2.29-0.53,4.88-1.43,7.03-1.8l-2.67-20.9
		c-4.08,0.46-8.81,1.76-13.23,2.39c-2.3,0.33-4.66,0.58-7,0.8C746.56,644.05,742.72,644.03,741.06,644.39L741.06,644.39z"/>
	<path class="st1" d="M708.55,613.25L705.14,634c4.31,2.13,24.91,5.23,30.27,4.77l0.08-22.45c-4.95-0.3-9.33-0.45-14.08-1.04
		C719.21,615.01,709.39,612.97,708.55,613.25L708.55,613.25z"/>
	<path class="st1" d="M770.06,612.27l3.75,21.37c4.54-0.8,24.51-8.88,27.31-11.29c-0.41-2.89-5.64-16.82-7.02-18.54
		C789.5,606.3,775.86,611.29,770.06,612.27L770.06,612.27z"/>
	<path class="st1" d="M774.68,639.2l2.78,20.18c3.71-0.14,24.35-10.63,28.06-14.21c0.04-5.58-1.95-11.69-2.71-16.93
		c-2.06,0.76-4.46,2.13-6.61,3.12c-3.85,1.77-9.93,4.12-14.01,5.44C780.34,637.4,776.16,638.44,774.68,639.2L774.68,639.2z"/>
	<path class="st1" d="M741.04,616.38l-0.11,22.48c7.67-0.23,13.25-0.82,20.65-2.19c2.04-0.38,4.29-1.03,6.28-1.3
		c-0.03-0.63-2.67-20.08-3.49-21.7c-3.72,0.49-7.42,1.32-11.24,1.77L741.04,616.38L741.04,616.38z"/>
	<path class="st1" d="M669.42,643.09c1.57,1.73,9.44,6.36,12.28,7.98c4.03,2.29,8.99,4.87,13.68,6.66l0.37-1.09
		c0.07-0.31,0.11-0.8,0.15-1.13c0.7-5.48,1.98-12.29,2.5-17.29c-2.1-0.91-4.67-1.73-6.9-2.65c-2.36-0.97-4.44-1.96-6.78-3.07
		c-2.29-1.08-4.4-2.21-6.48-3.38l-6.2-3.66C670.91,630.72,669.68,637.57,669.42,643.09L669.42,643.09z"/>
	<path class="st1" d="M673.51,619.59c1.27,0.5,4.38,2.69,5.97,3.63c2.11,1.25,4.03,2.19,6.28,3.32c2.79,1.39,10.67,5.15,13.52,5.59
		c0.5-1.06,1.5-8.5,1.82-10.26c0.61-3.37,1.43-6.94,2.02-10.17c-1.69-0.71-8.16-2.48-11.82-3.92l-10.94-4.84
		C677.96,606.92,674.37,614.02,673.51,619.59L673.51,619.59z"/>
	<path class="st0" d="M736.26,580.18c-4.96,0.84-10.95,4.96-8.69,11.02c4.06,10.89,25.91,6.79,22.25-4.62
		C748.4,582.12,742.33,579.15,736.26,580.18L736.26,580.18z"/>
	<path class="st0" d="M680.75,422.43c-1.61,0.58-1.51,0.95-3.41,2.69c-1.11,1.02-1.77,1.98-2.94,3.02
		c-2.43,2.17-8.78,10.86-10.38,13.48c-0.71,1.17-1.97,2.6-1.19,4.53c0.49,1.22,2.24,2.35,4.02,1.68c1.34-0.5,3.72-4.71,5.17-6.77
		c2.26-3.22,5.37-6.89,8.05-9.84c2.95-3.25,5.52-4.08,4.46-7.03C684.06,422.86,682.56,421.78,680.75,422.43L680.75,422.43z"/>
	<path class="st0" d="M799.07,426.46c-1.31,0.46-2.26,1.73-2.02,3.44c0.24,1.71,2.82,3.38,5.07,6.38
		c8.46,11.29,6.11,18.34,11.37,16.6c4.97-1.64-1.4-12.88-3.03-15.61c-1.48-2.49-2.97-4.53-4.62-6.53
		C804.04,428.57,801.65,425.54,799.07,426.46L799.07,426.46z"/>
	<path class="st0" d="M692.59,430.42c-2.28,1.24-6.34,7.82-8.08,10.67c-0.96,1.57-2.43,4.36-3.12,6.22
		c-1.08,2.89,1.45,5.5,4.23,4.24c1.65-0.75,2.51-4.04,3.52-5.82c1.17-2.07,2.32-3.96,3.57-5.77l4.02-5.32
		C698.09,431.93,695.29,428.96,692.59,430.42L692.59,430.42z"/>
	<path class="st0" d="M782.08,434.3c-4.47,1.61-0.62,6.36,0.51,9.31c1.19,3.13,1.42,9.18,5.68,7.88c3.91-1.19,1.28-7.4,0.23-10.15
		C787.48,438.73,785.58,433.04,782.08,434.3L782.08,434.3z"/>
	<path class="st0" d="M706.69,435.93c-2.1,0.69-4.09,4.35-5.2,6.34c-2.81,5.04,0.87,6.83,3.33,5.92c1.52-0.56,1.57-1.71,2.43-3.27
		c2.03-3.7,4.44-4.91,3.09-7.63C709.81,436.19,708.36,435.38,706.69,435.93L706.69,435.93z"/>
</g>
</svg>
